<!-- New SVG -->
<svg version="1.0" xmlns="http://www.w3.org/2000/svg"
 width="1200.000000pt" height="1333.000000pt" viewBox="0 0 1200.000000 1333.000000"
 preserveAspectRatio="xMidYMid meet">
    <g transform="translate(0.000000,1333.000000) scale(0.100000,-0.100000)"
    fill="#000000" stroke="none">
        <path d="M1365 9506 c-73 -170 -175 -426 -170 -426 3 0 257 328 338 435 20 27
        37 52 37 55 -1 3 -31 26 -68 51 l-68 46 -69 -161z"/>
        <path d="M817 7906 c-268 -968 -456 -1930 -626 -3191 -106 -783 -179 -1784
        -182 -2480 -1 -265 0 -283 21 -338 169 -450 1172 -1039 2215 -1301 866 -217
        1593 -219 2452 -5 583 144 1151 382 1591 665 l82 54 0 72 0 73 -56 39 c-156
        108 -365 300 -504 461 -465 541 -730 1268 -791 2165 -16 244 -7 725 16 800 22
        71 58 133 112 191 l44 47 -33 25 c-18 13 -109 77 -203 142 l-169 117 -30 -38
        c-16 -22 -81 -91 -145 -155 -171 -170 -367 -292 -600 -373 -169 -59 -273 -77
        -481 -83 -221 -6 -361 13 -550 76 -254 85 -443 203 -636 395 -228 228 -367
        478 -440 791 -27 113 -28 134 -29 345 0 198 3 238 23 330 39 180 108 358 190
        492 l38 64 -535 371 c-295 205 -574 399 -622 432 l-85 59 -67 -242z"/>
        <path d="M5690 5087 c-190 -76 -300 -151 -343 -231 -22 -40 -22 -48 -21 -406
        0 -279 4 -400 18 -515 120 -1039 519 -1770 1224 -2242 l112 -75 0 -277 c0
        -241 3 -287 20 -359 39 -164 122 -305 255 -437 263 -260 683 -432 1256 -512
        157 -22 687 -25 849 -5 760 93 1294 372 1491 778 73 151 81 202 88 530 l6 291
        106 71 c58 39 110 77 116 84 9 10 -114 95 -568 395 l-579 382 0 -33 c0 -64
        -50 -231 -99 -331 -266 -541 -920 -758 -1455 -482 -245 126 -432 345 -522 611
        -73 213 -72 470 1 685 76 224 244 439 432 554 29 18 51 35 50 39 -1 4 -330
        224 -731 488 l-729 481 -116 24 c-202 43 -366 108 -391 155 -18 33 -11 67 19
        95 l28 27 -193 129 c-107 71 -200 129 -207 129 -6 0 -59 -19 -117 -43z"/>
    </g>
</svg>
